<?xml version="1.0" encoding="UTF-8"?>
<svg version="1.1" xmlns="http://www.w3.org/2000/svg" width="1000" height="1000">
<path d="M0 0 C83.02018366 -1.84826302 171.96702256 17.31883504 303 99 C305.58969584 101.32063653 308.18120908 103.63922441 310.7734375 105.95703125 C313 108 313 108 314.66796875 110.3046875 C318.51727722 113.10301225 322.39724482 111.92570451 326.9375 111.3125 C345.0737162 109.08476583 363.30887288 108.79106857 381.5625 108.8125 C382.53044495 108.81310425 383.49838989 108.8137085 384.4956665 108.81433105 C403.38537543 108.84595854 422.17062565 109.4899503 441 111 C441.76020447 111.0608075 442.52040894 111.12161499 443.3036499 111.18426514 C525.06995363 117.8364607 605.23212014 137.86819169 721.32714844 192.49365234 C724.11565822 194.06518188 726.91939814 195.60659877 729.7265625 197.14453125 C742.95358081 204.4392982 755.57068195 212.41928504 768 221 C761.13743347 236.03416555 742.90615086 250.24649668 730 260 C728.51803906 261.14819217 727.03628833 262.29665568 725.5546875 263.4453125 C686.97823139 293.10780833 643.73749026 312.97624651 597 326 C597 322.63134523 597.51937087 321.93154499 599.375 319.25 C603.39867024 312.9922239 605.14660702 306.39863268 604 299 C600.17466034 287.38164279 591.65845744 281.89165891 581.31616211 276.48291016 C523.28801105 247.50264698 451.28105462 244.30533281 388 253 C386.71834961 253.16918945 385.43669922 253.33837891 384.11621094 253.51269531 C378.14794071 253.77644349 378.14794071 253.77644349 373 256 C374.29059326 256.17015625 375.58118652 256.3403125 376.91088867 256.515625 C509.84997098 274.17691773 509.84997098 274.17691773 538.4375 310 C543.55769232 317.39912185 547.13166116 325.88014238 546 335 C543.96380272 342.0991743 538.94221269 346.89663823 533 351 C516.71454679 359.90162052 497.59686194 361.85303098 479.52954102 364.6328125 C422.31807481 373.4674792 364.30210184 383.30812654 309.375 402.125 C308.56667725 402.40093994 307.75835449 402.67687988 306.92553711 402.96118164 C298.07668713 406.12604627 289.55861935 410.13417562 281 414 C282.28641388 414.14034416 282.28641388 414.14034416 283.59881592 414.28352356 C291.77520616 415.17627284 299.95115514 416.07294679 308.12665939 416.97377491 C312.3273789 417.43650327 316.52824082 417.89783648 320.72949219 418.35571289 C368.78881643 423.59627214 368.78881643 423.59627214 376 426 C375.52207947 459.25667655 370.9534719 491.78640938 362.875 524.0625 C362.63346191 525.0512915 362.39192383 526.04008301 362.14306641 527.05883789 C361.90765137 527.95852295 361.67223633 528.85820801 361.4296875 529.78515625 C361.12393799 530.97443726 361.12393799 530.97443726 360.81201172 532.18774414 C360.54404785 532.78578857 360.27608398 533.38383301 360 534 C359.01 534.33 358.02 534.66 357 535 C356.50113281 534.30777344 356.00226562 533.61554687 355.48828125 532.90234375 C351.10187898 526.92518159 346.54540268 521.16461077 341.6875 515.5625 C341.20385986 515.00361084 340.72021973 514.44472168 340.22192383 513.86889648 C330.45753977 502.71116597 320.21526598 492.05080894 309.71679688 481.58642578 C307.73449756 479.6095399 305.75767367 477.62728961 303.78125 475.64453125 C297.68979398 469.54987981 291.59229409 463.55780467 285 458 C283.39231627 456.54554483 281.78760285 455.08779105 280.1875 453.625 C275.94423992 449.79963675 271.59140503 446.1490591 267.1484375 442.55859375 C264.82188546 440.67737591 262.52033191 438.76870248 260.2265625 436.84765625 C210.55713045 395.3476168 155.0582788 360.43773925 97.57421875 330.8828125 C94.39041065 329.2445783 91.2190869 327.59328241 88.08203125 325.8671875 C15.74385268 286.07702713 -66.3318477 259.38146485 -205.62060547 225.05371094 C-206.8582666 224.8065332 -208.09592773 224.55935547 -209.37109375 224.3046875 C-210.44286865 224.09827637 -211.51464355 223.89186523 -212.61889648 223.67919922 C-213.40466064 223.45506348 -214.1904248 223.23092773 -215 223 C-215.33 222.34 -215.66 221.68 -216 221 C-186.96891228 215.17279703 -157.79899844 211.35902633 -128.3125 208.75 C-127.37617737 208.66700653 -126.43985474 208.58401306 -125.47515869 208.49850464 C-107.95878445 206.96342544 -90.45047409 205.94839812 -72.875 205.4375 C-72.16667023 205.41665344 -71.45834045 205.39580688 -70.72854614 205.37432861 C-57.81590302 205.00067575 -44.91769283 204.79435512 -32 205 C-30.28151855 205.02682861 -30.28151855 205.02682861 -28.52832031 205.05419922 C36.5219323 206.23771643 100.85885871 214.58777746 163.4375 232.625 C164.68716553 232.98513184 165.93683105 233.34526367 167.22436523 233.71630859 C177.05350147 236.60773422 177.05350147 236.60773422 181.59814453 238.49121094 C190.29243105 242.07857247 195.22177811 242.19248063 204 239 C205.93684786 238.42511102 207.877062 237.86145401 209.8203125 237.30859375 C211.33057007 236.8590332 211.33057007 236.8590332 212.87133789 236.40039062 C261.28866455 222.07173929 310.92292723 213.05664176 361 207 C361.69516724 206.91512329 362.39033447 206.83024658 363.10656738 206.74279785 C390.60663777 203.40608384 418.35045509 202.40698084 446 201 C371.07900152 185.97364219 293.38362527 183.05218298 195.70678711 201.85253906 C184.68199351 204.40229177 177.58197149 203.35979161 166.9375 199.875 C132.89735243 189.21585217 97.3254111 184.25697343 62 180 C62 179.34 62 178.68 62 178 C81.81733935 169.77576536 101.67722986 161.90769642 122 155 C123.10134277 154.62423828 124.20268555 154.24847656 125.33740234 153.86132812 C166.61062941 139.89583801 209.17855568 129.86978905 252 122 C244.12815912 120.0126828 236.25998634 119.17714856 228.1875 118.4375 C227.49726746 118.37307709 226.80703491 118.30865417 226.09588623 118.24227905 C185.7702556 114.49147729 145.83893321 115.1206559 105.80664062 121.57470703 C101.88043463 122.16964882 97.95040633 122.59917425 94 123 C94.03109863 122.37641602 94.06219727 121.75283203 94.09423828 121.11035156 C95.27867423 92.72109612 76.5843163 68.7075597 58.50439453 48.8996582 C53.27272012 43.24970291 47.95482112 37.8914602 42 33 C41.10796875 32.22011719 40.2159375 31.44023437 39.296875 30.63671875 C27.40314795 20.26566492 14.58525941 10.97333558 1.51953125 2.13671875 C1.01808594 1.76160156 0.51664063 1.38648438 0 1 C0 0.67 0 0.34 0 0 Z M483 151 C487.11971104 155.40637085 491.67781819 158.85282311 496.5625 162.375 C498.06474965 163.46484088 499.56598507 164.55608066 501.06640625 165.6484375 C501.9672998 166.27065186 502.86819336 166.89286621 503.79638672 167.53393555 C506.37883317 169.40726887 508.54481536 171.52044913 510.78564453 173.78833008 C523.62317057 185.99073421 535.37868358 186.70682187 552.23441219 186.38449478 C555.56200738 186.29549124 558.88728733 186.16433296 562.21331787 186.02996826 C566.4835143 185.87430917 570.75510639 185.80755615 575.02734375 185.73242188 C583.35531229 185.5732967 591.67661134 185.31862235 600 185 C570.08311718 161.83828027 519.81363663 153.49845551 483 151 Z " fill="#0053E1" transform="translate(224,237)"/>
<path d="M0 0 C2.37744845 0.42648884 4.75134251 0.86577233 7.125 1.3125 C7.79015625 1.43044922 8.4553125 1.54839844 9.140625 1.66992188 C13.5683313 2.51639514 17.27235163 3.43925364 21 6 C21.73101737 8.90768256 22.01749219 11.08151727 22.1015625 14.0234375 C22.1485881 14.82824051 22.19561371 15.63304352 22.24406433 16.4622345 C22.34314788 18.19498882 22.42969493 19.92849613 22.5050354 21.66244507 C22.70752281 26.24094756 23.01064633 30.81308128 23.30078125 35.38671875 C23.35636703 36.30074966 23.41195282 37.21478058 23.46922302 38.1565094 C28.24130738 114.53685397 57.07826162 192.14481231 102 254 C102.54366211 254.75716309 103.08732422 255.51432617 103.64746094 256.29443359 C110.1688558 265.36728327 116.80013906 274.27268878 124.14086914 282.70117188 C126.00082603 284.83785718 127.83839925 286.99036101 129.65551758 289.16357422 C136.50386757 297.32431646 143.70514563 305.01940123 151.26391602 312.5246582 C153.07221608 314.32215805 154.86945977 316.13022316 156.66601562 317.93945312 C163.47283408 324.75400093 170.4428096 331.01837889 178 337 C179.09022211 337.92291303 180.17482632 338.85256762 181.25 339.79296875 C222.96001729 376.11149233 273.71821347 402.68047572 326 420 C326.98097656 420.32693848 327.96195312 420.65387695 328.97265625 420.99072266 C356.07300785 429.91389551 383.7666788 435.33268928 412 439 C413.46542236 439.19118408 413.46542236 439.19118408 414.96044922 439.38623047 C496.43434596 449.56857634 581.37034468 433.45364951 655 398 C655.91555664 397.56606934 656.83111328 397.13213867 657.77441406 396.68505859 C678.9061977 386.64765011 699.03250637 374.69464121 718 361 C718.75474609 360.46020508 719.50949219 359.92041016 720.28710938 359.36425781 C730.96826303 351.70957494 741.1710612 343.71943043 751 335 C752.41615551 333.77024445 753.83273869 332.54098098 755.25 331.3125 C756.50111875 330.20960114 757.75093768 329.10522728 759 328 C759.72453369 327.36030273 760.44906738 326.72060547 761.19555664 326.06152344 C767.39175071 320.54231978 773.3342904 314.81770365 779.1875 308.9375 C780.03763672 308.09123047 780.88777344 307.24496094 781.76367188 306.37304688 C786.71804147 301.41102574 791.45142919 296.33499572 796 291 C796.845625 290.03578125 797.69125 289.0715625 798.5625 288.078125 C816.82958913 266.88361774 833.06025729 243.59945772 846.76074219 219.20507812 C847.62994119 217.65846556 848.50621415 216.11581737 849.38769531 214.57617188 C873.53995316 172.32986095 893.13503286 122.53068917 898.1015625 73.83984375 C901.19679551 44.86804087 901.19679551 44.86804087 907.01953125 38.84765625 C911.02101986 35.68899326 915.23856124 33.72119168 920 32 C921.34123517 31.34937689 922.67689772 30.68674783 924 30 C922.41447207 87.79249302 906.7124496 145.50717912 883 198 C882.55688477 198.98258789 882.11376953 199.96517578 881.65722656 200.97753906 C868.90650633 228.98441688 853.3052772 255.92782898 834.37744141 280.22558594 C833.04305767 281.9445333 831.72763031 283.67623267 830.41796875 285.4140625 C821.84046323 296.76245265 812.60621531 307.51190263 803 318 C802.52916992 318.51594727 802.05833984 319.03189453 801.57324219 319.56347656 C793.76930082 328.11017247 785.97062205 336.55336904 777.17578125 344.1015625 C774.69347802 346.26745005 772.28944855 348.50876957 769.875 350.75 C764.05649253 356.05416426 757.93505861 360.89274274 751.69384766 365.68701172 C750.17059563 366.86776257 748.66787481 368.07488722 747.16796875 369.28515625 C729.77493868 383.15675205 710.53864145 395.40163593 691 406 C690.11425293 406.48130371 689.22850586 406.96260742 688.31591797 407.45849609 C666.85958162 419.03934465 644.97659739 428.84274334 622 437 C620.67234619 437.47348877 620.67234619 437.47348877 619.31787109 437.95654297 C582.32468507 451.03226243 543.98955528 458.3377389 505 462 C503.95859863 462.103125 502.91719727 462.20625 501.84423828 462.3125 C469.71281359 465.08202406 435.94085543 464.52957025 404 460 C403.31556824 459.90525391 402.63113647 459.81050781 401.92596436 459.71289062 C322.37612963 448.67175694 246.7576405 418.13432846 183 369 C182.46197754 368.58814453 181.92395508 368.17628906 181.36962891 367.75195312 C163.33474037 353.9229524 146.60145113 338.64773375 130.5 322.625 C129.53042358 321.66243286 129.53042358 321.66243286 128.54125977 320.68041992 C124.15935777 316.28376213 120.04647218 311.70525612 116 307 C115.05029749 305.91725044 114.09982251 304.83517774 113.1484375 303.75390625 C105.34695971 294.810104 98.08833544 285.5157898 91 276 C90.4622998 275.28328125 89.92459961 274.5665625 89.37060547 273.828125 C31.18971727 196.04375749 -1.24493886 97.20099547 0 0 Z " fill="#0053E1" transform="translate(47,498)"/>
<path d="M0 0 C1.32053589 1.20477463 2.64886741 2.4018457 4.01000977 3.56054688 C10.17332015 8.82291091 15.89718371 14.50012668 21.6237793 20.22753906 C23.33168056 21.93325848 25.04743045 23.63080277 26.76367188 25.328125 C32.71835588 31.25312109 38.31973372 37.25276277 43.53051758 43.85205078 C45.32619826 46.09530773 47.20369965 48.21336307 49.15625 50.3203125 C97.83606652 104.67623411 130.83902418 177.32157288 145.40625 248.1953125 C144.07259215 247.86327992 142.73934072 247.52961479 141.40625 247.1953125 C140.29793823 246.92823486 140.29793823 246.92823486 139.16723633 246.65576172 C132.18662522 244.7711581 125.65733701 242.30520649 120.40625 237.1953125 C116.19938891 229.57823443 114.66052146 220.75855563 112.8271637 212.31698608 C111.33245783 205.52164113 109.12804898 199.07280716 106.65625 192.5703125 C106.24310547 191.47783203 105.82996094 190.38535156 105.40429688 189.25976562 C93.77902515 159.12607043 79.36714376 130.06838436 61.40625 103.1953125 C60.93735352 102.48987305 60.46845703 101.78443359 59.98535156 101.05761719 C53.81717297 91.81599143 47.29365864 82.91164646 40.40625 74.1953125 C39.42591797 72.94041016 39.42591797 72.94041016 38.42578125 71.66015625 C22.53561699 51.5107727 5.03945748 31.77836096 -14.59375 15.1953125 C-15.58375 14.32777344 -16.57375 13.46023437 -17.59375 12.56640625 C-42.0202203 -8.79164427 -68.90253581 -27.26845128 -97.45996094 -42.64746094 C-99.46637988 -43.73561034 -101.45688805 -44.84815053 -103.4453125 -45.96875 C-185.31792844 -91.51584456 -285.98914836 -104.85322173 -428.52163696 -79.05487061 C-489.81524062 -61.34204418 -546.4373004 -30.62121236 -594.59375 11.1953125 C-595.32851563 11.82953125 -596.06328125 12.46375 -596.8203125 13.1171875 C-598.75563594 14.79806602 -600.67558978 16.49487839 -602.59375 18.1953125 C-603.68357178 19.15787964 -603.68357178 19.15787964 -604.79541016 20.13989258 C-610.98977712 25.65684911 -616.93005996 31.37963772 -622.78125 37.2578125 C-623.63138672 38.10408203 -624.48152344 38.95035156 -625.35742188 39.82226562 C-630.31179147 44.78428676 -635.04517919 49.86031678 -639.59375 55.1953125 C-640.439375 56.15953125 -641.285 57.12375 -642.15625 58.1171875 C-662.13755884 81.30062916 -679.68271421 107.00615584 -694.328125 133.87402344 C-695.51698219 136.05451229 -696.72537118 138.22301709 -697.9375 140.390625 C-716.70032891 174.3844562 -728.82163346 211.72126818 -737.89648438 249.32568359 C-739.10243 254.28880857 -740.34924809 259.24173878 -741.59375 264.1953125 C-743.78027739 264.53496724 -745.96803025 264.86673727 -748.15625 265.1953125 C-749.37441406 265.3809375 -750.59257813 265.5665625 -751.84765625 265.7578125 C-755.47002848 266.18086327 -758.95087046 266.27032675 -762.59375 266.1953125 C-755.70687359 227.43283011 -745.15222805 190.01954827 -728.59375 154.1953125 C-728.16481445 153.25526367 -727.73587891 152.31521484 -727.29394531 151.34667969 C-710.42574514 114.49672721 -688.15533159 81.05053465 -662.13769531 50.04785156 C-660.72862718 48.35714805 -659.33931035 46.65325923 -657.9609375 44.9375 C-654.29165678 40.37266602 -650.59673524 36.03175491 -646.37158203 31.97387695 C-644.61102351 30.21259313 -642.99539366 28.38586299 -641.37890625 26.4921875 C-637.64178704 22.19321787 -633.69453603 18.14773332 -629.65625 14.1328125 C-628.99173828 13.46443359 -628.32722656 12.79605469 -627.64257812 12.10742188 C-623.12401002 7.59761918 -618.42986932 3.35990176 -613.59375 -0.8046875 C-612.43731692 -1.82644655 -611.28232067 -2.84983456 -610.12890625 -3.875 C-546.32345252 -60.18627955 -466.31734518 -97.0316943 0 0 Z " fill="#0053E1" transform="translate(817.59375,152.8046875)"/>
</svg>
